<?xml version="1.0" encoding="utf-8"?>
<!-- Generator: Adobe Illustrator 24.1.2, SVG Export Plug-In . SVG Version: 6.00 Build 0)  -->
<svg version="1.1" id="Layer_1" xmlns="http://www.w3.org/2000/svg" xmlns:xlink="http://www.w3.org/1999/xlink" x="0px" y="0px"
	 width="64px" height="64px" viewBox="0 0 64 64" style="enable-background:new 0 0 64 64;" xml:space="preserve">
<style type="text/css">
	.st0{fill:#5D696E;}
	.st1{opacity:0.25;fill:#545F63;}
	.st2{fill:url(#SVGID_1_);}
	.st3{fill:url(#SVGID_2_);}
	.st4{fill:url(#SVGID_3_);}
	.st5{fill:url(#SVGID_4_);}
	.st6{fill:url(#SVGID_5_);}
	.st7{opacity:0.2;fill:url(#SVGID_6_);}
	.st8{fill:url(#SVGID_7_);}
	.st9{fill:url(#SVGID_8_);}
	.st10{fill:url(#SVGID_9_);}
	.st11{fill:url(#SVGID_10_);}
	.st12{fill:url(#SVGID_11_);}
	.st13{fill:url(#SVGID_12_);}
	.st14{fill:url(#SVGID_13_);}
	.st15{fill:url(#SVGID_14_);}
	.st16{fill:url(#SVGID_15_);}
	.st17{fill:url(#SVGID_16_);}
	.st18{fill:url(#SVGID_17_);}
	.st19{fill:url(#SVGID_18_);}
	.st20{fill:url(#SVGID_19_);}
	.st21{fill:url(#SVGID_20_);}
	.st22{fill:url(#SVGID_21_);}
	.st23{fill:url(#SVGID_22_);}
	.st24{fill:url(#SVGID_23_);}
	.st25{fill:url(#SVGID_24_);}
	.st26{fill:url(#SVGID_25_);}
	.st27{fill:url(#SVGID_26_);}
	.st28{fill:url(#SVGID_27_);}
	.st29{fill:url(#SVGID_28_);}
</style>
<path class="st0" d="M13.9,54.3c-0.1,0.95-0.27,5.06-0.27,5.06s3.81,0.11,4.16-0.63c0.54-1.15,1.12-2.87,1.21-4.43H13.9z"/>
<path class="st0" d="M50.07,54.3c0.1,0.95,0.27,5.06,0.27,5.06s-3.81,0.11-4.16-0.63c-0.54-1.15-1.12-2.87-1.21-4.43H50.07z"/>
<path class="st1" d="M14.34,54.62c0.02-2.06-1.77-3.86-1.64-3.9c0.13-0.05,2.39,1.69,2.29,4.01C14.99,54.86,14.34,54.75,14.34,54.62
	z"/>
<path class="st1" d="M13.15,54.45c-0.44-2.51-2.7-3.65-2.6-3.73c0.1-0.08,2.56,1,3.17,3.81C13.75,54.65,13.18,54.58,13.15,54.45z"/>
<path class="st1" d="M12.19,54.31c-1.38-2.43-2.65-2.37-2.56-2.46c0.09-0.09,1.73,0,3.05,2.55C12.74,54.51,12.26,54.42,12.19,54.31z
	"/>
<path class="st1" d="M49.63,54.62c-0.02-2.06,1.77-3.86,1.64-3.9c-0.13-0.05-2.39,1.69-2.29,4.01
	C48.98,54.86,49.63,54.75,49.63,54.62z"/>
<path class="st1" d="M50.81,54.45c0.44-2.51,2.7-3.65,2.6-3.73c-0.1-0.08-2.56,1-3.17,3.81C50.21,54.65,50.79,54.58,50.81,54.45z"/>
<path class="st1" d="M51.77,54.31c1.38-2.43,2.65-2.37,2.56-2.46c-0.09-0.09-1.73,0-3.05,2.55C51.23,54.51,51.71,54.42,51.77,54.31z
	"/>
<linearGradient id="SVGID_1_" gradientUnits="userSpaceOnUse" x1="58.0594" y1="22.5601" x2="60.0594" y2="22.5601">
	<stop  offset="0" style="stop-color:#767F82"/>
	<stop  offset="0.1792" style="stop-color:#7D8689"/>
	<stop  offset="0.4434" style="stop-color:#90999D"/>
	<stop  offset="0.7586" style="stop-color:#B0B9BD"/>
	<stop  offset="1" style="stop-color:#CDD6DB"/>
</linearGradient>
<path class="st2" d="M60.06,33.88h-2V11.45c0-0.31,2-0.26,2,0V33.88z"/>
<radialGradient id="SVGID_2_" cx="51.125" cy="12.1414" r="9.0269" gradientTransform="matrix(1 0 0 0.9533 0 -0.2015)" gradientUnits="userSpaceOnUse">
	<stop  offset="0.7596" style="stop-color:#767F82"/>
	<stop  offset="0.8029" style="stop-color:#7E878A"/>
	<stop  offset="0.8701" style="stop-color:#939CA0"/>
	<stop  offset="0.9521" style="stop-color:#B6BFC3"/>
	<stop  offset="1" style="stop-color:#CDD6DB"/>
</radialGradient>
<path class="st3" d="M58.06,11.45c0-3.16-1.48-5.62-4.06-6.77c-3.14-1.39-5.68-0.67-8.85,2.2L43.8,5.41c3.77-3.41,7.13-4.26,11-2.55
	c3.29,1.46,5.25,4.67,5.25,8.59H58.06z"/>
<linearGradient id="SVGID_3_" gradientUnits="userSpaceOnUse" x1="58.0594" y1="11.4787" x2="60.0594" y2="11.4787">
	<stop  offset="0" style="stop-color:#767F82"/>
	<stop  offset="0.3347" style="stop-color:#788184"/>
	<stop  offset="0.5232" style="stop-color:#80898D"/>
	<stop  offset="0.6753" style="stop-color:#8E979A"/>
	<stop  offset="0.808" style="stop-color:#A1AAAE"/>
	<stop  offset="0.9268" style="stop-color:#BAC3C7"/>
	<stop  offset="1" style="stop-color:#CDD6DB"/>
</linearGradient>
<path class="st4" d="M58.06,11.33v0.12c0,0.25,2,0.25,2,0v-0.12C59.7,11.47,58.42,11.47,58.06,11.33z"/>
<linearGradient id="SVGID_4_" gradientUnits="userSpaceOnUse" x1="602.415" y1="537.4607" x2="605.8595" y2="537.4607" gradientTransform="matrix(0.7064 0.7078 -0.7078 0.7064 -1.1807 -801.6102)">
	<stop  offset="0" style="stop-color:#CDD6DB"/>
	<stop  offset="8.660495e-03" style="stop-color:#CCD5DA"/>
	<stop  offset="0.6817" style="stop-color:#8E979B"/>
	<stop  offset="1" style="stop-color:#767F82"/>
</linearGradient>
<path class="st5" d="M45.67,7.59l-2.43-2.44l1.11-1.11c0.43-0.43,2.86,2.01,2.43,2.44L45.67,7.59z"/>
<linearGradient id="SVGID_5_" gradientUnits="userSpaceOnUse" x1="598.5935" y1="540.517" x2="609.3203" y2="540.517" gradientTransform="matrix(0.7064 0.7078 -0.7078 0.7064 -1.1807 -801.6102)">
	<stop  offset="0" style="stop-color:#CDD6DB"/>
	<stop  offset="8.660495e-03" style="stop-color:#CCD5DA"/>
	<stop  offset="0.6817" style="stop-color:#8E979B"/>
	<stop  offset="1" style="stop-color:#767F82"/>
</linearGradient>
<path class="st6" d="M45.23,12.92c-0.64,0.64-8.22-6.95-7.58-7.59c1.32-1.32,5.05-1.64,7.14,0.46C46.89,7.88,46.55,11.6,45.23,12.92
	z"/>
<linearGradient id="SVGID_6_" gradientUnits="userSpaceOnUse" x1="598.5935" y1="541.7053" x2="609.3203" y2="541.7053" gradientTransform="matrix(0.7064 0.7078 -0.7078 0.7064 -1.1807 -801.6102)">
	<stop  offset="0" style="stop-color:#9EA5A8"/>
	<stop  offset="0.1412" style="stop-color:#899093"/>
	<stop  offset="0.3406" style="stop-color:#72797C"/>
	<stop  offset="0.5281" style="stop-color:#646B6E"/>
	<stop  offset="0.6898" style="stop-color:#5F6669"/>
</linearGradient>
<path class="st7" d="M45.23,12.92c0.27-0.27,0.5-0.64,0.67-1.08c-0.05-0.97-1.13-2.71-2.8-4.38c-1.66-1.67-3.41-2.75-4.38-2.8
	c-0.44,0.17-0.81,0.4-1.08,0.67C37.01,5.97,44.59,13.56,45.23,12.92z"/>
<linearGradient id="SVGID_7_" gradientUnits="userSpaceOnUse" x1="606.7618" y1="545.3455" x2="601.152" y2="539.7357" gradientTransform="matrix(0.7064 0.7078 -0.7078 0.7064 -1.1807 -801.6102)">
	<stop  offset="0" style="stop-color:#CDD6DB"/>
	<stop  offset="0.083" style="stop-color:#C1CACF"/>
	<stop  offset="0.3388" style="stop-color:#A0A9AD"/>
	<stop  offset="0.5833" style="stop-color:#899295"/>
	<stop  offset="0.8096" style="stop-color:#7B8487"/>
	<stop  offset="1" style="stop-color:#767F82"/>
</linearGradient>
<path class="st8" d="M45.23,12.92c-0.64,0.64-2.86-0.54-4.96-2.63c-2.09-2.1-3.27-4.32-2.62-4.96c0.64-0.64,2.86,0.54,4.96,2.63
	C44.7,10.05,45.88,12.27,45.23,12.92z"/>
<path class="st0" d="M40.55,10.04c-0.06-0.06-0.12-0.12-0.18-0.18l0.13-0.13c0.06,0.06,0.12,0.12,0.18,0.18
	c0.05,0.05,0.1,0.1,0.16,0.15l-0.13,0.13C40.65,10.15,40.6,10.1,40.55,10.04z M40.04,9.51c-0.11-0.12-0.22-0.24-0.32-0.36l0.14-0.12
	c0.1,0.12,0.21,0.23,0.31,0.35L40.04,9.51z M41.05,10.53l0.12-0.13c0.12,0.11,0.24,0.21,0.35,0.31l-0.12,0.14
	C41.29,10.74,41.17,10.64,41.05,10.53z M39.42,8.79c-0.1-0.13-0.2-0.25-0.29-0.38l0.14-0.11c0.09,0.12,0.19,0.25,0.29,0.37
	L39.42,8.79z M41.78,11.15l0.11-0.14c0.13,0.1,0.25,0.2,0.37,0.29l-0.11,0.14C42.03,11.35,41.9,11.25,41.78,11.15z M38.84,8.03
	c-0.09-0.14-0.18-0.27-0.26-0.4l0.15-0.09c0.08,0.13,0.16,0.26,0.25,0.39L38.84,8.03z M42.54,11.73l0.1-0.15
	c0.14,0.09,0.27,0.18,0.39,0.26l-0.09,0.15C42.81,11.91,42.68,11.82,42.54,11.73z M38.35,7.2c-0.08-0.16-0.15-0.31-0.2-0.44
	l0.17-0.06c0.05,0.13,0.11,0.27,0.19,0.42L38.35,7.2z M43.36,12.22l0.08-0.16c0.15,0.08,0.29,0.14,0.42,0.19l-0.06,0.17
	C43.67,12.37,43.52,12.3,43.36,12.22z M38.03,6.28c-0.02-0.23,0.02-0.4,0.14-0.52l0.13,0.13c-0.07,0.08-0.1,0.2-0.09,0.37
	L38.03,6.28z M44.29,12.54l0.02-0.18c0.17,0.02,0.29-0.01,0.37-0.09l0.14,0.11L44.8,12.4C44.69,12.51,44.52,12.56,44.29,12.54z
	 M38.66,5.8l0.02-0.18c0.14,0.01,0.3,0.05,0.48,0.12L39.1,5.9C38.94,5.84,38.79,5.81,38.66,5.8z M44.77,11.89
	c-0.01-0.13-0.05-0.27-0.11-0.44l0.17-0.06c0.07,0.18,0.11,0.34,0.12,0.48L44.77,11.89z M39.53,6.09l0.08-0.16
	c0.13,0.07,0.28,0.15,0.42,0.24l-0.09,0.15C39.79,6.23,39.66,6.16,39.53,6.09z M44.46,11.03c-0.07-0.13-0.14-0.27-0.23-0.41
	l0.15-0.09c0.09,0.14,0.17,0.28,0.24,0.42L44.46,11.03z M40.33,6.57l0.1-0.15c0.13,0.09,0.26,0.18,0.39,0.28l-0.11,0.14
	C40.58,6.75,40.45,6.66,40.33,6.57z M43.98,10.22c-0.09-0.12-0.18-0.25-0.27-0.38l0.14-0.11c0.1,0.13,0.19,0.26,0.28,0.39
	L43.98,10.22z M41.08,7.14L41.2,7c0.12,0.1,0.24,0.2,0.37,0.31l-0.12,0.14C41.32,7.34,41.2,7.23,41.08,7.14z M43.42,9.47
	c-0.1-0.12-0.2-0.24-0.3-0.36l0.14-0.12c0.11,0.12,0.21,0.25,0.31,0.37L43.42,9.47z M41.8,7.75l0.12-0.13
	c0.12,0.11,0.23,0.22,0.35,0.33l-0.13,0.13C42.03,7.97,41.91,7.86,41.8,7.75z M42.8,8.76c-0.1-0.11-0.21-0.23-0.32-0.34l0.13-0.13
	c0.11,0.12,0.22,0.23,0.33,0.35L42.8,8.76z"/>
<path class="st0" d="M40.95,9.61l0.13-0.13c0.12,0.12,0.23,0.23,0.35,0.34l-0.12,0.13C41.19,9.85,41.07,9.73,40.95,9.61z
	 M40.61,9.26c-0.12-0.12-0.23-0.25-0.33-0.37l0.14-0.12c0.1,0.12,0.21,0.24,0.33,0.36L40.61,9.26z M41.67,10.29l0.12-0.14
	c0.13,0.11,0.25,0.21,0.37,0.31l-0.11,0.14C41.93,10.5,41.8,10.4,41.67,10.29z M39.97,8.51c-0.11-0.14-0.21-0.27-0.3-0.4l0.15-0.1
	C39.91,8.14,40,8.27,40.11,8.4L39.97,8.51z M42.45,10.9l0.1-0.15c0.14,0.1,0.28,0.19,0.4,0.26l-0.09,0.16
	C42.74,11.09,42.6,11,42.45,10.9z M39.4,7.7c-0.1-0.17-0.17-0.32-0.22-0.45l0.17-0.06c0.05,0.12,0.12,0.27,0.21,0.42L39.4,7.7z
	 M43.32,11.39l0.06-0.17c0.18,0.07,0.32,0.08,0.37,0.03l0.14,0.11l-0.01,0.01C43.77,11.49,43.58,11.49,43.32,11.39z M39.18,6.69
	L39.18,6.69c0.11-0.11,0.3-0.12,0.56-0.02l-0.06,0.17c-0.18-0.07-0.31-0.08-0.36-0.03L39.18,6.69z M43.72,10.87
	c-0.05-0.12-0.12-0.26-0.21-0.42l0.16-0.09c0.1,0.17,0.17,0.32,0.22,0.45L43.72,10.87z M40.1,7.05l0.09-0.16
	c0.13,0.08,0.27,0.17,0.42,0.27l-0.1,0.15C40.36,7.21,40.23,7.12,40.1,7.05z M43.24,10.05c-0.09-0.12-0.19-0.25-0.29-0.39l0.14-0.11
	c0.11,0.14,0.21,0.27,0.3,0.39L43.24,10.05z M40.89,7.6l0.11-0.14c0.12,0.1,0.25,0.2,0.38,0.32l-0.12,0.14
	C41.14,7.8,41.02,7.7,40.89,7.6z M42.64,9.29c-0.1-0.12-0.21-0.24-0.33-0.36l0.13-0.12c0.12,0.12,0.23,0.25,0.33,0.37L42.64,9.29z
	 M41.63,8.24l0.12-0.13c0.12,0.11,0.24,0.22,0.35,0.34l-0.13,0.13C41.86,8.46,41.75,8.35,41.63,8.24z"/>
<path class="st0" d="M42.51,10.01c-0.12,0.12-0.66-0.22-1.2-0.76c-0.54-0.54-0.88-1.08-0.76-1.2c0.12-0.12,0.66,0.22,1.2,0.76
	C42.29,9.35,42.63,9.89,42.51,10.01z"/>
<radialGradient id="SVGID_8_" cx="30.4573" cy="27.2949" r="37.4153" gradientTransform="matrix(1 0 0 0.7513 0 6.0068)" gradientUnits="userSpaceOnUse">
	<stop  offset="0" style="stop-color:#FFFFFF"/>
	<stop  offset="0.2773" style="stop-color:#FAFBFC"/>
	<stop  offset="0.5841" style="stop-color:#EDF1F2"/>
	<stop  offset="0.9039" style="stop-color:#D7DFE3"/>
	<stop  offset="1" style="stop-color:#CFD8DD"/>
</radialGradient>
<path class="st9" d="M3.12,36.12c0,0,2.04,1.48,2.04,7.98c0,12.36,9.5,12.34,9.5,12.34H49.3c0,0,9.5,0.02,9.5-12.34
	c0-6.5,2.04-7.98,2.04-7.98H3.12z"/>
<linearGradient id="SVGID_9_" gradientUnits="userSpaceOnUse" x1="235.5015" y1="6.0838" x2="237.5789" y2="-8.3895" gradientTransform="matrix(-1 0 0 0.814 288.2852 57.0475)">
	<stop  offset="0" style="stop-color:#CDD6DB"/>
	<stop  offset="0.0206" style="stop-color:#C7D0D4"/>
	<stop  offset="0.1479" style="stop-color:#A4ADB1"/>
	<stop  offset="0.2673" style="stop-color:#8B9497"/>
	<stop  offset="0.3747" style="stop-color:#7B8487"/>
	<stop  offset="0.4599" style="stop-color:#767F82"/>
	<stop  offset="0.5946" style="stop-color:#879094"/>
	<stop  offset="0.8622" style="stop-color:#B4BDC1"/>
	<stop  offset="1" style="stop-color:#CDD6DB"/>
</linearGradient>
<path class="st10" d="M52.65,58.39c2.59,0.25,3.53,2.42,2.27,2.52c0,0,0.02,0.95-1.32,0.66c-0.33,0.96-3.38,0.14-3.79-0.75
	c-0.7-1.5-1.48-3.84-1.48-5.83c-0.94-0.33-0.78-2.23,0.43-2.23c0.67-1.59,1.95-2.65,2.51-2.04c0.63-0.99,2.22-0.9,2.14,0
	c0.54-0.4,1.64,0.37,0.93,1.13c0.82,0.91-1.13,0.58-2.18,2.55C51.73,55.19,52.67,58.07,52.65,58.39z"/>
<linearGradient id="SVGID_10_" gradientUnits="userSpaceOnUse" x1="11.1802" y1="6.0838" x2="13.2576" y2="-8.3895" gradientTransform="matrix(1 0 0 0.814 0 57.0475)">
	<stop  offset="0" style="stop-color:#CDD6DB"/>
	<stop  offset="0.0206" style="stop-color:#C7D0D4"/>
	<stop  offset="0.1479" style="stop-color:#A4ADB1"/>
	<stop  offset="0.2673" style="stop-color:#8B9497"/>
	<stop  offset="0.3747" style="stop-color:#7B8487"/>
	<stop  offset="0.4599" style="stop-color:#767F82"/>
	<stop  offset="0.5946" style="stop-color:#879094"/>
	<stop  offset="0.8622" style="stop-color:#B4BDC1"/>
	<stop  offset="1" style="stop-color:#CDD6DB"/>
</linearGradient>
<path class="st11" d="M11.32,58.39c-2.59,0.25-3.53,2.42-2.27,2.52c0,0-0.02,0.95,1.32,0.66c0.33,0.96,3.38,0.14,3.79-0.75
	c0.7-1.5,1.48-3.84,1.48-5.83c0.94-0.33,0.78-2.23-0.43-2.23c-0.67-1.59-1.95-2.65-2.51-2.04c-0.63-0.99-2.22-0.9-2.14,0
	c-0.54-0.4-1.64,0.37-0.93,1.13c-0.82,0.91,1.13,0.58,2.18,2.55C12.23,55.19,11.3,58.07,11.32,58.39z"/>
<path class="st1" d="M10.36,61.57c0-0.02-0.47-1.95,1.87-2.29c0.14-0.02,0.56,0.19,0.42,0.21C10.77,59.76,10.37,61.69,10.36,61.57z"
	/>
<path class="st1" d="M9.05,60.91c-0.02-0.61,0.19-1.84,1.78-2.08c0.14-0.02,0.56,0.26,0.42,0.28C9.7,59.35,9.05,61.03,9.05,60.91z"
	/>
<path class="st1" d="M53.6,61.57c0-0.02,0.47-1.95-1.87-2.29c-0.14-0.02-0.56,0.19-0.42,0.21C53.2,59.76,53.6,61.69,53.6,61.57z"/>
<path class="st1" d="M54.92,60.91c0.02-0.61-0.19-1.84-1.78-2.08c-0.14-0.02-0.56,0.26-0.42,0.28
	C54.26,59.35,54.91,61.03,54.92,60.91z"/>
<linearGradient id="SVGID_11_" gradientUnits="userSpaceOnUse" x1="1525.4987" y1="36.541" x2="1525.4987" y2="33.5436" gradientTransform="matrix(-1 0 0 1 1557.4987 0)">
	<stop  offset="0" style="stop-color:#CFD8DD"/>
	<stop  offset="0.2934" style="stop-color:#D8DFE4"/>
	<stop  offset="0.7761" style="stop-color:#F1F4F5"/>
	<stop  offset="1" style="stop-color:#FFFFFF"/>
</linearGradient>
<path class="st12" d="M3.5,36.54h57c0.83,0,1.5-0.67,1.5-1.5v0c0-0.83-0.67-1.5-1.5-1.5h-57c-0.83,0-1.5,0.67-1.5,1.5v0
	C2,35.87,2.67,36.54,3.5,36.54z"/>
<linearGradient id="SVGID_12_" gradientUnits="userSpaceOnUse" x1="1526.2214" y1="38.2114" x2="1526.2214" y2="26.9978" gradientTransform="matrix(-1 0 0 1 1557.4987 0)">
	<stop  offset="0" style="stop-color:#C2F8FF"/>
	<stop  offset="0.1253" style="stop-color:#C8F9FF"/>
	<stop  offset="1" style="stop-color:#EBFCFF"/>
</linearGradient>
<path class="st13" d="M4.21,31.15c-0.27-1.81,2.02-5.25,3.67-3.81c0.05,0.05,2.6-0.5,3.25,0.6c0.97-1.33,3.03-1,3.88,0.63
	c0.17,0.33,1.97-0.82,2.81,0.15c0.94-1.38,3.25-1.63,4.34-0.28c0.12,0.15,0.94-0.75,1.4,0.37c0.62-0.29,1.36-0.41,2.08-0.21
	c1.05-1.21,4.43-0.01,4.68,1.9c0.07,0.5,1.69-0.72,2.16,0.75c0.8-0.43,1.82-0.57,2.75-0.07c0.96-1.34,3.37-1.99,4.28-0.11
	c0.21,0.44,2.16-0.72,3.46,0.4c0.72-0.28,1.56-0.31,2.34,0.09c0.9-1.43,2.7-2.9,4.7-0.99c0.44,0.42,1.91-0.91,3.34,0.69
	c0.95-0.5,4.21,0.43,3.98,0.99c1.42,0.16,2.53,0.5,2.68,1.78c0.16,1.41-3.03-0.59-3.81,0.78c-0.81,1.42-2.11-0.29-2.56,1.56
	c-0.58,2.36-2.45,2.43-3.6,0.4c-0.85-1.5-2.9-0.5-3.9-1.25c-1.46-1.1-1.21-2.08-4.25-0.46c-3.25,1.73-3.59-2.21-6.81,0
	c-1.19,0.82-2.55,0.6-2.41,1.5c0.21,1.33-2.09,1.84-1.86,0.46c0.24-1.5-1.64-0.74-2.14-1.08c-1.11-0.74-0.56-2.08-2.8-0.92
	c-3.29,1.69-4.64-2.19-7.84-0.36c-1.24,0.71-2.09,0.79-3.3,2.29c-1.38,1.72-3.21,1.62-4.47-0.58c-1-1.75-1.83-1.15-2.72-1.58
	c-2.06-1-2.51-0.41-3.75-0.66C2.03,33.76,2.13,31.87,4.21,31.15z"/>
<linearGradient id="SVGID_13_" gradientUnits="userSpaceOnUse" x1="1530.9403" y1="20.8648" x2="1530.9403" y2="18.7008" gradientTransform="matrix(-1 0 0 1.0362 1557.4987 2.6048)">
	<stop  offset="0" style="stop-color:#C2F8FF"/>
	<stop  offset="0.1253" style="stop-color:#C8F9FF"/>
	<stop  offset="1" style="stop-color:#EBFCFF"/>
</linearGradient>
<path class="st14" d="M27.31,22.24c0.93,0.68,0.36,2.28-1.05,1.94C24.32,23.71,25.86,21.18,27.31,22.24z"/>
<linearGradient id="SVGID_14_" gradientUnits="userSpaceOnUse" x1="1540.3563" y1="34.3882" x2="1540.3563" y2="32.2241" gradientTransform="matrix(-1 0 0 1.0362 1557.4987 2.6048)">
	<stop  offset="0" style="stop-color:#C2F8FF"/>
	<stop  offset="0.1253" style="stop-color:#C8F9FF"/>
	<stop  offset="1" style="stop-color:#EBFCFF"/>
</linearGradient>
<path class="st15" d="M17.9,36.25c0.93,0.68,0.36,2.28-1.05,1.94C14.91,37.73,16.44,35.19,17.9,36.25z"/>
<linearGradient id="SVGID_15_" gradientUnits="userSpaceOnUse" x1="1519.6903" y1="38.2008" x2="1519.6903" y2="36.0368" gradientTransform="matrix(-1 0 0 1.0362 1557.4987 2.6048)">
	<stop  offset="0" style="stop-color:#C2F8FF"/>
	<stop  offset="0.1253" style="stop-color:#C8F9FF"/>
	<stop  offset="1" style="stop-color:#EBFCFF"/>
</linearGradient>
<path class="st16" d="M38.56,40.2c0.93,0.68,0.36,2.28-1.05,1.94C35.57,41.68,37.11,39.14,38.56,40.2z"/>
<linearGradient id="SVGID_16_" gradientUnits="userSpaceOnUse" x1="1544.4091" y1="18.0602" x2="1544.4091" y2="15.8961" gradientTransform="matrix(-1 0 0 1.0362 1557.4987 2.6048)">
	<stop  offset="0" style="stop-color:#C2F8FF"/>
	<stop  offset="0.1253" style="stop-color:#C8F9FF"/>
	<stop  offset="1" style="stop-color:#EBFCFF"/>
</linearGradient>
<path class="st17" d="M13.85,19.33c0.93,0.68,0.36,2.28-1.05,1.94C10.86,20.81,12.39,18.27,13.85,19.33z"/>
<linearGradient id="SVGID_17_" gradientUnits="userSpaceOnUse" x1="1519.6903" y1="25.7049" x2="1519.6903" y2="23.5408" gradientTransform="matrix(-1 0 0 1.0362 1557.4987 2.6048)">
	<stop  offset="0" style="stop-color:#C2F8FF"/>
	<stop  offset="0.1253" style="stop-color:#C8F9FF"/>
	<stop  offset="1" style="stop-color:#EBFCFF"/>
</linearGradient>
<path class="st18" d="M38.56,27.26c0.93,0.68,0.36,2.28-1.05,1.94C35.57,28.73,37.11,26.19,38.56,27.26z"/>
<linearGradient id="SVGID_18_" gradientUnits="userSpaceOnUse" x1="1508.9716" y1="23.5894" x2="1508.9716" y2="21.4254" gradientTransform="matrix(-1 0 0 1.0362 1557.4987 2.6048)">
	<stop  offset="0" style="stop-color:#C2F8FF"/>
	<stop  offset="0.1253" style="stop-color:#C8F9FF"/>
	<stop  offset="1" style="stop-color:#EBFCFF"/>
</linearGradient>
<path class="st19" d="M49.28,25.06c0.93,0.68,0.36,2.28-1.05,1.94C46.29,26.54,47.82,24,49.28,25.06z"/>
<linearGradient id="SVGID_19_" gradientUnits="userSpaceOnUse" x1="1536.5991" y1="23.8251" x2="1536.5991" y2="22.5074" gradientTransform="matrix(-1 0 0 1.0362 1557.4987 2.6048)">
	<stop  offset="0" style="stop-color:#C2F8FF"/>
	<stop  offset="0.1253" style="stop-color:#C8F9FF"/>
	<stop  offset="1" style="stop-color:#EBFCFF"/>
</linearGradient>
<path class="st20" d="M21.36,26.08c0.56,0.41,0.22,1.39-0.64,1.18C19.54,26.98,20.47,25.44,21.36,26.08z"/>
<linearGradient id="SVGID_20_" gradientUnits="userSpaceOnUse" x1="1522.4116" y1="20.8173" x2="1522.4116" y2="19.4996" gradientTransform="matrix(-1 0 0 1.0362 1557.4987 2.6048)">
	<stop  offset="0" style="stop-color:#C2F8FF"/>
	<stop  offset="0.1253" style="stop-color:#C8F9FF"/>
	<stop  offset="1" style="stop-color:#EBFCFF"/>
</linearGradient>
<path class="st21" d="M35.55,22.97c0.56,0.41,0.22,1.39-0.64,1.18C33.73,23.86,34.66,22.32,35.55,22.97z"/>
<linearGradient id="SVGID_21_" gradientUnits="userSpaceOnUse" x1="1508.5282" y1="34.9314" x2="1508.5282" y2="33.6137" gradientTransform="matrix(-1 0 0 1.0362 1557.4987 2.6048)">
	<stop  offset="0" style="stop-color:#C2F8FF"/>
	<stop  offset="0.1253" style="stop-color:#C8F9FF"/>
	<stop  offset="1" style="stop-color:#EBFCFF"/>
</linearGradient>
<path class="st22" d="M49.43,37.59c0.56,0.41,0.22,1.39-0.64,1.18C47.61,38.49,48.54,36.94,49.43,37.59z"/>
<linearGradient id="SVGID_22_" gradientUnits="userSpaceOnUse" x1="1500.3604" y1="33.4095" x2="1500.3604" y2="32.0918" gradientTransform="matrix(-1 0 0 1.0362 1557.4987 2.6048)">
	<stop  offset="0" style="stop-color:#C2F8FF"/>
	<stop  offset="0.1253" style="stop-color:#C8F9FF"/>
	<stop  offset="1" style="stop-color:#EBFCFF"/>
</linearGradient>
<path class="st23" d="M57.6,36.02c0.56,0.41,0.22,1.39-0.64,1.18C55.78,36.91,56.71,35.37,57.6,36.02z"/>
<linearGradient id="SVGID_23_" gradientUnits="userSpaceOnUse" x1="1530.2042" y1="34.9314" x2="1530.2042" y2="33.6137" gradientTransform="matrix(-1 0 0 1.0362 1557.4987 2.6048)">
	<stop  offset="0" style="stop-color:#C2F8FF"/>
	<stop  offset="0.1253" style="stop-color:#C8F9FF"/>
	<stop  offset="1" style="stop-color:#EBFCFF"/>
</linearGradient>
<path class="st24" d="M27.75,37.59c0.56,0.41,0.22,1.39-0.64,1.18C25.93,38.49,26.87,36.94,27.75,37.59z"/>
<linearGradient id="SVGID_24_" gradientUnits="userSpaceOnUse" x1="1551.3292" y1="34.9314" x2="1551.3292" y2="33.6137" gradientTransform="matrix(-1 0 0 1.0362 1557.4987 2.6048)">
	<stop  offset="0" style="stop-color:#C2F8FF"/>
	<stop  offset="0.1253" style="stop-color:#C8F9FF"/>
	<stop  offset="1" style="stop-color:#EBFCFF"/>
</linearGradient>
<path class="st25" d="M6.63,37.59c0.56,0.41,0.22,1.39-0.64,1.18C4.81,38.49,5.74,36.94,6.63,37.59z"/>
<linearGradient id="SVGID_25_" gradientUnits="userSpaceOnUse" x1="1547.2241" y1="21.8993" x2="1547.2241" y2="20.5817" gradientTransform="matrix(-1 0 0 1.0362 1557.4987 2.6048)">
	<stop  offset="0" style="stop-color:#C2F8FF"/>
	<stop  offset="0.1253" style="stop-color:#C8F9FF"/>
	<stop  offset="1" style="stop-color:#EBFCFF"/>
</linearGradient>
<path class="st26" d="M10.73,24.09c0.56,0.41,0.22,1.39-0.64,1.18C8.91,24.99,9.85,23.44,10.73,24.09z"/>
<linearGradient id="SVGID_26_" gradientUnits="userSpaceOnUse" x1="1539.8804" y1="19.7829" x2="1539.8804" y2="18.4652" gradientTransform="matrix(-1 0 0 1.0362 1557.4987 2.6048)">
	<stop  offset="0" style="stop-color:#C2F8FF"/>
	<stop  offset="0.1253" style="stop-color:#C8F9FF"/>
	<stop  offset="1" style="stop-color:#EBFCFF"/>
</linearGradient>
<path class="st27" d="M18.08,21.9c0.56,0.41,0.22,1.39-0.64,1.18C16.26,22.79,17.19,21.25,18.08,21.9z"/>
<linearGradient id="SVGID_27_" gradientUnits="userSpaceOnUse" x1="1512.3953" y1="25.7049" x2="1512.3953" y2="24.3872" gradientTransform="matrix(-1 0 0 1.0362 1557.4987 2.6048)">
	<stop  offset="0" style="stop-color:#C2F8FF"/>
	<stop  offset="0.1253" style="stop-color:#C8F9FF"/>
	<stop  offset="1" style="stop-color:#EBFCFF"/>
</linearGradient>
<path class="st28" d="M45.56,28.03c0.56,0.41,0.22,1.39-0.64,1.18C43.74,28.93,44.68,27.38,45.56,28.03z"/>
<linearGradient id="SVGID_28_" gradientUnits="userSpaceOnUse" x1="1501.8328" y1="25.9405" x2="1501.8328" y2="24.6229" gradientTransform="matrix(-1 0 0 1.0362 1557.4987 2.6048)">
	<stop  offset="0" style="stop-color:#C2F8FF"/>
	<stop  offset="0.1253" style="stop-color:#C8F9FF"/>
	<stop  offset="1" style="stop-color:#EBFCFF"/>
</linearGradient>
<path class="st29" d="M56.13,28.28c0.56,0.41,0.22,1.39-0.64,1.18C54.31,29.17,55.24,27.63,56.13,28.28z"/>
</svg>
