<?xml version="1.0" encoding="utf-8"?>
<!-- Generator: Adobe Illustrator 24.1.2, SVG Export Plug-In . SVG Version: 6.00 Build 0)  -->
<svg version="1.1" id="Layer_1" xmlns="http://www.w3.org/2000/svg" xmlns:xlink="http://www.w3.org/1999/xlink" x="0px" y="0px"
	 width="64px" height="64px" viewBox="0 0 64 64" style="enable-background:new 0 0 64 64;" xml:space="preserve">
<style type="text/css">
	.st0{fill:#00C4FF;}
	.st1{fill:url(#SVGID_1_);}
</style>
<path class="st0" d="M32,62C15.46,62,2,48.54,2,32S15.46,2,32,2s30,13.46,30,30S48.54,62,32,62z"/>
<radialGradient id="SVGID_1_" cx="49.2959" cy="0.7519" r="37.0245" gradientTransform="matrix(1.0169 0 0 1.0169 -22.4567 23.1572)" gradientUnits="userSpaceOnUse">
	<stop  offset="0" style="stop-color:#0DACD0"/>
	<stop  offset="1" style="stop-color:#015996"/>
</radialGradient>
<circle class="st1" cx="32" cy="32" r="29.5"/>
<path class="st0" d="M32,62c-3.28,0.04-6.53-1.11-9.25-3.03c-2.72-1.94-4.92-4.57-6.64-7.47c-3.42-5.85-4.88-12.72-4.97-19.49
	c0.09-6.77,1.55-13.64,4.97-19.5c1.71-2.9,3.92-5.53,6.64-7.47C25.47,3.11,28.72,1.96,32,2c-3.28,0.08-6.45,1.35-9.04,3.34
	c-2.62,1.96-4.73,4.59-6.35,7.47C13.36,18.6,11.92,25.34,11.9,32c0.03,6.66,1.46,13.4,4.71,19.19c1.62,2.88,3.73,5.5,6.36,7.47
	C25.55,60.65,28.72,61.92,32,62z"/>
<path class="st0" d="M32,2c3.28-0.04,6.53,1.11,9.25,3.03c2.72,1.94,4.93,4.57,6.64,7.47c3.42,5.85,4.88,12.72,4.97,19.49
	c-0.09,6.77-1.55,13.64-4.97,19.5c-1.71,2.9-3.92,5.53-6.64,7.47C38.53,60.89,35.28,62.04,32,62c3.28-0.08,6.45-1.35,9.04-3.34
	c2.62-1.96,4.73-4.59,6.35-7.47C50.64,45.4,52.08,38.66,52.1,32c-0.03-6.66-1.46-13.4-4.71-19.19c-1.62-2.88-3.73-5.5-6.36-7.47
	C38.45,3.35,35.28,2.08,32,2z"/>
<path class="st0" d="M32,62c-0.66,0.01-1.3-0.3-1.81-0.73c-0.52-0.43-0.94-0.97-1.32-1.53c-0.74-1.14-1.29-2.38-1.77-3.65
	c-0.93-2.55-1.55-5.21-2.03-7.87c-0.96-5.35-1.29-10.79-1.34-16.21c0.04-5.43,0.38-10.87,1.34-16.21c0.49-2.67,1.11-5.32,2.03-7.88
	c0.48-1.27,1.04-2.51,1.77-3.65c0.37-0.56,0.8-1.1,1.32-1.53C30.7,2.3,31.34,1.99,32,2c-0.66,0.03-1.26,0.37-1.74,0.82
	c-0.48,0.45-0.88,0.99-1.22,1.55c-0.67,1.15-1.17,2.4-1.6,3.67c-0.85,2.55-1.4,5.19-1.81,7.85C24.8,21.21,24.46,26.61,24.47,32
	c-0.02,5.39,0.33,10.79,1.15,16.11c0.42,2.66,0.97,5.3,1.81,7.85c0.42,1.27,0.92,2.52,1.6,3.67c0.34,0.57,0.74,1.11,1.22,1.55
	C30.74,61.63,31.34,61.97,32,62z"/>
<path class="st0" d="M32,2c0.66-0.01,1.3,0.3,1.81,0.73c0.52,0.43,0.94,0.97,1.32,1.53c0.74,1.14,1.29,2.38,1.77,3.65
	c0.93,2.55,1.55,5.21,2.03,7.87c0.96,5.35,1.29,10.79,1.34,16.21c-0.04,5.43-0.38,10.87-1.34,16.21c-0.49,2.67-1.11,5.32-2.03,7.88
	c-0.48,1.27-1.04,2.51-1.77,3.65c-0.37,0.56-0.8,1.1-1.32,1.53C33.3,61.7,32.66,62.01,32,62c0.66-0.03,1.26-0.37,1.74-0.82
	c0.48-0.45,0.88-0.99,1.22-1.55c0.67-1.15,1.17-2.4,1.6-3.67c0.85-2.55,1.4-5.19,1.81-7.85c0.83-5.32,1.17-10.72,1.16-16.11
	c0.02-5.39-0.33-10.79-1.15-16.11c-0.42-2.66-0.97-5.3-1.81-7.85c-0.42-1.27-0.92-2.52-1.6-3.67c-0.34-0.57-0.74-1.11-1.22-1.55
	C33.26,2.37,32.66,2.03,32,2z"/>
<path class="st0" d="M18.56,5.19c2.26,0.14,4.52,0.34,6.77,0.47c2.25,0.13,4.51,0.25,6.76,0.22c2.25,0.03,4.51-0.07,6.76-0.18
	c2.26-0.11,4.51-0.29,6.78-0.41c-2.23,0.44-4.47,0.75-6.73,0.99c-2.26,0.24-4.53,0.33-6.81,0.36c-2.27-0.03-4.55-0.14-6.81-0.39
	C23.03,5.98,20.78,5.63,18.56,5.19z"/>
<path class="st0" d="M9.98,11.69c3.61,0.89,7.26,1.59,10.94,2.03c3.68,0.44,7.38,0.69,11.08,0.65c3.7,0.02,7.4-0.24,11.08-0.69
	c3.68-0.45,7.33-1.14,10.95-2c-3.54,1.16-7.18,2-10.87,2.57c-3.69,0.57-7.42,0.83-11.16,0.86c-3.73-0.02-7.47-0.27-11.16-0.83
	C17.15,13.72,13.5,12.88,9.98,11.69z"/>
<path class="st0" d="M3.81,21.88c4.63,1.05,9.31,1.89,14.01,2.44c4.71,0.55,9.44,0.86,14.17,0.83c4.73,0.03,9.47-0.29,14.17-0.84
	c4.71-0.55,9.38-1.39,14.02-2.43c-4.56,1.34-9.23,2.33-13.94,3.01c-4.72,0.67-9.48,0.98-14.25,1.01c-4.77-0.03-9.53-0.33-14.25-1.01
	C13.04,24.22,8.37,23.23,3.81,21.88z"/>
<path class="st0" d="M2.02,32.91c4.93,1.16,9.89,2.1,14.9,2.73c5,0.63,10.04,0.99,15.08,0.96c5.04,0.03,10.08-0.32,15.08-0.94
	c5.01-0.63,9.97-1.58,14.9-2.74c-4.84,1.47-9.8,2.57-14.82,3.32c-5.02,0.75-10.09,1.1-15.16,1.12c-5.07-0.03-10.15-0.39-15.16-1.14
	C11.82,35.46,6.86,34.37,2.02,32.91z"/>
<path class="st0" d="M5.03,44.69c4.46,0.95,8.94,1.69,13.46,2.18c4.51,0.49,9.05,0.77,13.59,0.75c4.54,0.04,9.08-0.22,13.59-0.7
	c4.51-0.48,9-1.24,13.44-2.24c-4.36,1.31-8.85,2.21-13.38,2.82c-4.53,0.6-9.09,0.86-13.66,0.88c-4.57-0.04-9.13-0.32-13.66-0.93
	C13.9,46.83,9.41,45.94,5.03,44.69z"/>
<path class="st0" d="M11.48,53.81c3.39,0.96,6.83,1.67,10.3,2.15c3.47,0.47,6.97,0.75,10.47,0.73c3.5,0.04,7-0.2,10.46-0.7
	c3.46-0.5,6.89-1.31,10.19-2.54c-3.18,1.52-6.62,2.48-10.09,3.11c-3.48,0.62-7.02,0.86-10.56,0.88c-3.53-0.05-7.07-0.32-10.55-0.91
	C18.22,55.92,14.78,55.06,11.48,53.81z"/>
</svg>
