<?xml version="1.0" encoding="utf-8"?>
<!-- Generator: Adobe Illustrator 24.1.2, SVG Export Plug-In . SVG Version: 6.00 Build 0)  -->
<svg version="1.1" id="Layer_1" xmlns="http://www.w3.org/2000/svg" xmlns:xlink="http://www.w3.org/1999/xlink" x="0px" y="0px"
	 width="64px" height="64px" viewBox="0 0 64 64" style="enable-background:new 0 0 64 64;" xml:space="preserve">
<style type="text/css">
	.st0{fill:url(#SVGID_1_);}
	.st1{fill:#1A1626;}
	.st2{fill:#FD7383;}
	.st3{fill:url(#SVGID_2_);}
	.st4{fill:url(#SVGID_3_);}
	.st5{fill:url(#SVGID_4_);}
</style>
<linearGradient id="SVGID_1_" gradientUnits="userSpaceOnUse" x1="32.0002" y1="62" x2="32.0002" y2="2">
	<stop  offset="0" style="stop-color:#FF9500"/>
	<stop  offset="0.1919" style="stop-color:#FFAD00"/>
	<stop  offset="0.5455" style="stop-color:#FFD500"/>
	<stop  offset="0.8272" style="stop-color:#FFED00"/>
	<stop  offset="1" style="stop-color:#FFF600"/>
</linearGradient>
<circle class="st0" cx="32" cy="32" r="30"/>
<path class="st1" d="M47.24,36.33C43.6,35.65,38.47,35,32,35c-6.47,0-11.61,0.65-15.25,1.33c-1.84,0.34-2.84,1.87-2.75,3.41
	C14.45,47.49,20.4,54,32,54c11.6,0,17.55-6.51,17.99-14.27C50.08,38.19,49.08,36.67,47.24,36.33z"/>
<path class="st2" d="M23.47,50c0,0,3.79,2,8.53,2c4.74,0,8.53-2,8.53-2s-2.84-3-8.53-2C26.32,47,23.47,50,23.47,50z"/>
<linearGradient id="SVGID_2_" gradientUnits="userSpaceOnUse" x1="16.0119" y1="39.4976" x2="47.9886" y2="39.4976">
	<stop  offset="0" style="stop-color:#CFD7E6"/>
	<stop  offset="0.0368" style="stop-color:#DAE0EC"/>
	<stop  offset="0.1263" style="stop-color:#EEF1F6"/>
	<stop  offset="0.2147" style="stop-color:#FBFCFD"/>
	<stop  offset="0.3" style="stop-color:#FFFFFF"/>
	<stop  offset="0.7" style="stop-color:#FFFFFF"/>
	<stop  offset="0.7853" style="stop-color:#FBFCFD"/>
	<stop  offset="0.8737" style="stop-color:#EEF1F6"/>
	<stop  offset="0.9632" style="stop-color:#DAE0EC"/>
	<stop  offset="1" style="stop-color:#CFD7E6"/>
</linearGradient>
<path class="st3" d="M46.51,38.24C44,37.79,38.69,37,32,37c-6.69,0-12,0.79-14.51,1.24c-1.57,0.28-1.6,0.97-1.39,2.28
	c0.18,1.15,0.31,1.45,1.52,1.47c1.12,0.02,14.38,0,14.38,0s13.26,0.02,14.38,0c1.22-0.02,1.34-0.32,1.52-1.47
	C48.11,39.21,48.07,38.53,46.51,38.24z"/>
<linearGradient id="SVGID_3_" gradientUnits="userSpaceOnUse" x1="45.5453" y1="13.8446" x2="40.8111" y2="39.1015" gradientTransform="matrix(0.9659 0.2588 -0.2588 0.9659 12.0622 -18.3788)">
	<stop  offset="0" style="stop-color:#FF1C23"/>
	<stop  offset="0.4164" style="stop-color:#F31317"/>
	<stop  offset="1" style="stop-color:#DB0100"/>
</linearGradient>
<path class="st4" d="M49.02,12.29C46.96,5.39,36.26,5,34.27,12.44c-1.2,4.47,1.71,8.64,7.44,16.51c1.95,2.67,2.3,2.77,5.32,1.43
	c8.9-3.96,13.5-6.11,14.7-10.58C63.72,12.36,54.26,7.34,49.02,12.29z"/>
<linearGradient id="SVGID_4_" gradientUnits="userSpaceOnUse" x1="31.8094" y1="-12.4904" x2="27.075" y2="12.7677" gradientTransform="matrix(0.9659 -0.2588 0.2588 0.9659 -12.2831 26.0914)">
	<stop  offset="0" style="stop-color:#FF1C23"/>
	<stop  offset="0.4164" style="stop-color:#F31317"/>
	<stop  offset="1" style="stop-color:#DB0100"/>
</linearGradient>
<path class="st5" d="M14.98,12.29C9.75,7.34,0.28,12.36,2.27,19.8c1.2,4.47,5.8,6.62,14.7,10.58c3.02,1.34,3.38,1.25,5.32-1.42
	c5.73-7.88,8.64-12.04,7.44-16.52C27.74,5,17.03,5.39,14.98,12.29z"/>
</svg>
